<svg xmlns="http://www.w3.org/2000/svg" version="1.1" xmlns:xlink="http://www.w3.org/1999/xlink" xmlns:svgjs="http://svgjs.com/svgjs" width="1440" height="450" preserveAspectRatio="none" viewBox="0 0 1440 450"><g mask="url(&quot;#SvgjsMask1090&quot;)" fill="none"><path d="M1488 450L0 450 L0 269.54Q28.27 225.81, 72 254.08Q93.99 204.07, 144 226.06Q186.71 196.77, 216 239.48Q238.06 189.54, 288 211.6Q356.08 159.68, 408 227.75Q481.52 181.28, 528 254.8Q603.79 210.59, 648 286.38Q684.35 202.73, 768 239.08Q834.7 185.78, 888 252.48Q937.83 230.31, 960 280.14Q984.21 184.35, 1080 208.55Q1126.24 182.79, 1152 229.03Q1214.4 219.44, 1224 281.84Q1270.55 208.39, 1344 254.94Q1386.79 225.73, 1416 268.51Q1433.45 213.96, 1488 231.42z" fill="rgba(40, 40, 40, 1)"></path><path d="M1464 450L0 450 L0 332.98Q42.31 303.29, 72 345.6Q92.21 293.81, 144 314.03Q158.08 256.11, 216 270.19Q290.09 224.28, 336 298.38Q405.01 247.39, 456 316.4Q509.06 297.45, 528 350.51Q556.9 259.41, 648 288.31Q715.01 235.32, 768 302.33Q823.58 285.9, 840 341.48Q866.03 295.51, 912 321.55Q937.43 274.98, 984 300.41Q1067.83 264.24, 1104 348.07Q1154.53 278.6, 1224 329.12Q1258.67 243.8, 1344 278.47Q1420.44 234.92, 1464 311.36z" fill="rgba(65, 65, 64, 1)"></path><path d="M1488 450L0 450 L0 398.96Q38.4 365.36, 72 403.75Q102.96 314.71, 192 345.66Q241.98 323.64, 264 373.62Q318.75 356.37, 336 411.12Q361.22 364.34, 408 389.55Q438.3 347.85, 480 378.14Q527.68 353.82, 552 401.5Q555.25 332.75, 624 336Q691.19 283.19, 744 350.39Q799.62 334.01, 816 389.63Q882.69 336.32, 936 403.02Q947.15 342.17, 1008 353.33Q1038.2 311.53, 1080 341.73Q1136.42 326.15, 1152 382.57Q1198.49 357.06, 1224 403.56Q1231.69 339.25, 1296 346.94Q1339.4 318.34, 1368 361.74Q1448.74 322.48, 1488 403.21z" fill="rgba(133, 133, 133, 1)"></path><path d="M1488 450L0 450 L0 399.37Q52.73 380.1, 72 432.82Q122.12 410.94, 144 461.06Q159.83 404.89, 216 420.73Q257.51 390.24, 288 431.75Q342.35 414.1, 360 468.44Q395.49 383.93, 480 419.41Q501.03 368.44, 552 389.47Q633.38 350.85, 672 432.23Q713.33 401.56, 744 442.89Q777.92 356.81, 864 390.74Q944.32 351.06, 984 431.38Q1034.83 410.21, 1056 461.04Q1094.37 379.41, 1176 417.78Q1224.34 346.12, 1296 394.45Q1348.82 375.27, 1368 428.09Q1441.46 381.55, 1488 455.02z" fill="white"></path></g><defs><mask id="SvgjsMask1090"><rect width="1440" height="450" fill="#ffffff"></rect></mask></defs></svg>