<svg xmlns="http://www.w3.org/2000/svg" version="1.1" xmlns:xlink="http://www.w3.org/1999/xlink" xmlns:svgjs="http://svgjs.com/svgjs" width="1440" height="560" preserveAspectRatio="none" viewBox="0 0 1440 560"><g mask="url(&quot;#SvgjsMask1025&quot;)" fill="none"><path d="M897.79 601.33C1034.41 574.6 1068.05 246.14 1309.18 226.05 1550.31 205.96 1612.39 93.34 1720.57 91.65" stroke="rgba(40, 40, 40, 1)" stroke-width="2"></path><path d="M553.55 616.38C647.52 615.13 630.27 509.64 912.78 505.63 1195.3 501.62 1442.7 278.8 1631.25 276.03" stroke="rgba(40, 40, 40, 1)" stroke-width="2"></path><path d="M608.21 624.37C787.03 575.87 844.24 85.52 1111.29 80.18 1378.34 74.84 1480.41 262.09 1614.37 264.98" stroke="rgba(40, 40, 40, 1)" stroke-width="2"></path><path d="M712.61 570.98C831.57 476.34 758.28 24.32 963.78 17.21 1169.28 10.1 1328.71 236.21 1466.12 241.21" stroke="rgba(40, 40, 40, 1)" stroke-width="2"></path><path d="M599.25 627.42C729.24 575.26 672.38 178.85 931.22 176.11 1190.07 173.37 1423.96 342.81 1595.17 344.11" stroke="rgba(40, 40, 40, 1)" stroke-width="2"></path></g><defs><mask id="SvgjsMask1025"><rect width="1440" height="560" fill="#ffffff"></rect></mask></defs></svg>