<svg id="visual" viewBox="0 0 900 350" width="900" height="350" xmlns="http://www.w3.org/2000/svg" xmlns:xlink="http://www.w3.org/1999/xlink" version="1.1"><rect x="0" y="0" width="900" height="350" fill="#ffffff"></rect><path d="M0 222L8.3 221.3C16.7 220.7 33.3 219.3 50 214.5C66.7 209.7 83.3 201.3 100 198C116.7 194.7 133.3 196.3 150 200.3C166.7 204.3 183.3 210.7 200 208.7C216.7 206.7 233.3 196.3 250 196.7C266.7 197 283.3 208 300 207.8C316.7 207.7 333.3 196.3 350 192C366.7 187.7 383.3 190.3 400 193.5C416.7 196.7 433.3 200.3 450 201.5C466.7 202.7 483.3 201.3 500 199.2C516.7 197 533.3 194 550 193.7C566.7 193.3 583.3 195.7 600 195.8C616.7 196 633.3 194 650 196.8C666.7 199.7 683.3 207.3 700 206.3C716.7 205.3 733.3 195.7 750 191C766.7 186.3 783.3 186.7 800 188.3C816.7 190 833.3 193 850 199.3C866.7 205.7 883.3 215.3 891.7 220.2L900 225L900 351L891.7 351C883.3 351 866.7 351 850 351C833.3 351 816.7 351 800 351C783.3 351 766.7 351 750 351C733.3 351 716.7 351 700 351C683.3 351 666.7 351 650 351C633.3 351 616.7 351 600 351C583.3 351 566.7 351 550 351C533.3 351 516.7 351 500 351C483.3 351 466.7 351 450 351C433.3 351 416.7 351 400 351C383.3 351 366.7 351 350 351C333.3 351 316.7 351 300 351C283.3 351 266.7 351 250 351C233.3 351 216.7 351 200 351C183.3 351 166.7 351 150 351C133.3 351 116.7 351 100 351C83.3 351 66.7 351 50 351C33.3 351 16.7 351 8.3 351L0 351Z" fill="#dfc15e"></path><path d="M0 253L8.3 252C16.7 251 33.3 249 50 245.2C66.7 241.3 83.3 235.7 100 236.3C116.7 237 133.3 244 150 246.2C166.7 248.3 183.3 245.7 200 243C216.7 240.3 233.3 237.7 250 234.7C266.7 231.7 283.3 228.3 300 225.5C316.7 222.7 333.3 220.3 350 223.3C366.7 226.3 383.3 234.7 400 235.8C416.7 237 433.3 231 450 227.8C466.7 224.7 483.3 224.3 500 225.7C516.7 227 533.3 230 550 228.3C566.7 226.7 583.3 220.3 600 224.3C616.7 228.3 633.3 242.7 650 247.2C666.7 251.7 683.3 246.3 700 239.5C716.7 232.7 733.3 224.3 750 226.7C766.7 229 783.3 242 800 242.5C816.7 243 833.3 231 850 226.3C866.7 221.7 883.3 224.3 891.7 225.7L900 227L900 351L891.7 351C883.3 351 866.7 351 850 351C833.3 351 816.7 351 800 351C783.3 351 766.7 351 750 351C733.3 351 716.7 351 700 351C683.3 351 666.7 351 650 351C633.3 351 616.7 351 600 351C583.3 351 566.7 351 550 351C533.3 351 516.7 351 500 351C483.3 351 466.7 351 450 351C433.3 351 416.7 351 400 351C383.3 351 366.7 351 350 351C333.3 351 316.7 351 300 351C283.3 351 266.7 351 250 351C233.3 351 216.7 351 200 351C183.3 351 166.7 351 150 351C133.3 351 116.7 351 100 351C83.3 351 66.7 351 50 351C33.3 351 16.7 351 8.3 351L0 351Z" fill="#ae9851"></path><path d="M0 273L8.3 268.7C16.7 264.3 33.3 255.7 50 253.8C66.7 252 83.3 257 100 256.5C116.7 256 133.3 250 150 246.8C166.7 243.7 183.3 243.3 200 244C216.7 244.7 233.3 246.3 250 247.5C266.7 248.7 283.3 249.3 300 249.8C316.7 250.3 333.3 250.7 350 252.7C366.7 254.7 383.3 258.3 400 257.2C416.7 256 433.3 250 450 247.5C466.7 245 483.3 246 500 252.8C516.7 259.7 533.3 272.3 550 277.8C566.7 283.3 583.3 281.7 600 277.3C616.7 273 633.3 266 650 264C666.7 262 683.3 265 700 268.5C716.7 272 733.3 276 750 278.3C766.7 280.7 783.3 281.3 800 278C816.7 274.7 833.3 267.3 850 266.7C866.7 266 883.3 272 891.7 275L900 278L900 351L891.7 351C883.3 351 866.7 351 850 351C833.3 351 816.7 351 800 351C783.3 351 766.7 351 750 351C733.3 351 716.7 351 700 351C683.3 351 666.7 351 650 351C633.3 351 616.7 351 600 351C583.3 351 566.7 351 550 351C533.3 351 516.7 351 500 351C483.3 351 466.7 351 450 351C433.3 351 416.7 351 400 351C383.3 351 366.7 351 350 351C333.3 351 316.7 351 300 351C283.3 351 266.7 351 250 351C233.3 351 216.7 351 200 351C183.3 351 166.7 351 150 351C133.3 351 116.7 351 100 351C83.3 351 66.7 351 50 351C33.3 351 16.7 351 8.3 351L0 351Z" fill="#7f7044"></path><path d="M0 313L8.3 312.2C16.7 311.3 33.3 309.7 50 306C66.7 302.3 83.3 296.7 100 296.5C116.7 296.3 133.3 301.7 150 304.8C166.7 308 183.3 309 200 303.7C216.7 298.3 233.3 286.7 250 285.2C266.7 283.7 283.3 292.3 300 292.8C316.7 293.3 333.3 285.7 350 282.8C366.7 280 383.3 282 400 286.2C416.7 290.3 433.3 296.7 450 300.2C466.7 303.7 483.3 304.3 500 300.3C516.7 296.3 533.3 287.7 550 288.7C566.7 289.7 583.3 300.3 600 303.7C616.7 307 633.3 303 650 302C666.7 301 683.3 303 700 301.8C716.7 300.7 733.3 296.3 750 295.8C766.7 295.3 783.3 298.7 800 297.2C816.7 295.7 833.3 289.3 850 288.5C866.7 287.7 883.3 292.3 891.7 294.7L900 297L900 351L891.7 351C883.3 351 866.7 351 850 351C833.3 351 816.7 351 800 351C783.3 351 766.7 351 750 351C733.3 351 716.7 351 700 351C683.3 351 666.7 351 650 351C633.3 351 616.7 351 600 351C583.3 351 566.7 351 550 351C533.3 351 516.7 351 500 351C483.3 351 466.7 351 450 351C433.3 351 416.7 351 400 351C383.3 351 366.7 351 350 351C333.3 351 316.7 351 300 351C283.3 351 266.7 351 250 351C233.3 351 216.7 351 200 351C183.3 351 166.7 351 150 351C133.3 351 116.7 351 100 351C83.3 351 66.7 351 50 351C33.3 351 16.7 351 8.3 351L0 351Z" fill="#524a36"></path><path d="M0 301L8.3 303.8C16.7 306.7 33.3 312.3 50 312C66.7 311.7 83.3 305.3 100 303.2C116.7 301 133.3 303 150 309.7C166.7 316.3 183.3 327.7 200 330.5C216.7 333.3 233.3 327.7 250 327.7C266.7 327.7 283.3 333.3 300 332.5C316.7 331.7 333.3 324.3 350 324.5C366.7 324.7 383.3 332.3 400 330.3C416.7 328.3 433.3 316.7 450 314.2C466.7 311.7 483.3 318.3 500 318.2C516.7 318 533.3 311 550 309C566.7 307 583.3 310 600 309.3C616.7 308.7 633.3 304.3 650 307.8C666.7 311.3 683.3 322.7 700 328.2C716.7 333.7 733.3 333.3 750 328.3C766.7 323.3 783.3 313.7 800 309.3C816.7 305 833.3 306 850 306.2C866.7 306.3 883.3 305.7 891.7 305.3L900 305L900 351L891.7 351C883.3 351 866.7 351 850 351C833.3 351 816.7 351 800 351C783.3 351 766.7 351 750 351C733.3 351 716.7 351 700 351C683.3 351 666.7 351 650 351C633.3 351 616.7 351 600 351C583.3 351 566.7 351 550 351C533.3 351 516.7 351 500 351C483.3 351 466.7 351 450 351C433.3 351 416.7 351 400 351C383.3 351 366.7 351 350 351C333.3 351 316.7 351 300 351C283.3 351 266.7 351 250 351C233.3 351 216.7 351 200 351C183.3 351 166.7 351 150 351C133.3 351 116.7 351 100 351C83.3 351 66.7 351 50 351C33.3 351 16.7 351 8.3 351L0 351Z" fill="#282828"></path></svg>