<svg id="visual" viewBox="0 0 900 600" width="900" height="600" xmlns="http://www.w3.org/2000/svg" xmlns:xlink="http://www.w3.org/1999/xlink" version="1.1"><path d="M0 428L21.5 419.3C43 410.7 86 393.3 128.8 389.3C171.7 385.3 214.3 394.7 257.2 397C300 399.3 343 394.7 385.8 387.3C428.7 380 471.3 370 514.2 365.7C557 361.3 600 362.7 642.8 371.7C685.7 380.7 728.3 397.3 771.2 398.2C814 399 857 384 878.5 376.5L900 369L900 601L878.5 601C857 601 814 601 771.2 601C728.3 601 685.7 601 642.8 601C600 601 557 601 514.2 601C471.3 601 428.7 601 385.8 601C343 601 300 601 257.2 601C214.3 601 171.7 601 128.8 601C86 601 43 601 21.5 601L0 601Z" fill="#ebd490"></path><path d="M0 408L21.5 415.3C43 422.7 86 437.3 128.8 449C171.7 460.7 214.3 469.3 257.2 473.2C300 477 343 476 385.8 472.5C428.7 469 471.3 463 514.2 460.7C557 458.3 600 459.7 642.8 454.7C685.7 449.7 728.3 438.3 771.2 436.7C814 435 857 443 878.5 447L900 451L900 601L878.5 601C857 601 814 601 771.2 601C728.3 601 685.7 601 642.8 601C600 601 557 601 514.2 601C471.3 601 428.7 601 385.8 601C343 601 300 601 257.2 601C214.3 601 171.7 601 128.8 601C86 601 43 601 21.5 601L0 601Z" fill="#e5ca77"></path><path d="M0 470L21.5 467.8C43 465.7 86 461.3 128.8 458C171.7 454.7 214.3 452.3 257.2 457.7C300 463 343 476 385.8 478C428.7 480 471.3 471 514.2 472.3C557 473.7 600 485.3 642.8 487.8C685.7 490.3 728.3 483.7 771.2 484C814 484.3 857 491.7 878.5 495.3L900 499L900 601L878.5 601C857 601 814 601 771.2 601C728.3 601 685.7 601 642.8 601C600 601 557 601 514.2 601C471.3 601 428.7 601 385.8 601C343 601 300 601 257.2 601C214.3 601 171.7 601 128.8 601C86 601 43 601 21.5 601L0 601Z" fill="#dfc15e"></path><path d="M0 528L21.5 521.8C43 515.7 86 503.3 128.8 500C171.7 496.7 214.3 502.3 257.2 508.8C300 515.3 343 522.7 385.8 523.7C428.7 524.7 471.3 519.3 514.2 516.8C557 514.3 600 514.7 642.8 515.3C685.7 516 728.3 517 771.2 514.8C814 512.7 857 507.3 878.5 504.7L900 502L900 601L878.5 601C857 601 814 601 771.2 601C728.3 601 685.7 601 642.8 601C600 601 557 601 514.2 601C471.3 601 428.7 601 385.8 601C343 601 300 601 257.2 601C214.3 601 171.7 601 128.8 601C86 601 43 601 21.5 601L0 601Z" fill="#c3a84f"></path><path d="M0 564L21.5 557.7C43 551.3 86 538.7 128.8 538.8C171.7 539 214.3 552 257.2 555.3C300 558.7 343 552.3 385.8 552.2C428.7 552 471.3 558 514.2 555.7C557 553.3 600 542.7 642.8 542.8C685.7 543 728.3 554 771.2 557.7C814 561.3 857 557.7 878.5 555.8L900 554L900 601L878.5 601C857 601 814 601 771.2 601C728.3 601 685.7 601 642.8 601C600 601 557 601 514.2 601C471.3 601 428.7 601 385.8 601C343 601 300 601 257.2 601C214.3 601 171.7 601 128.8 601C86 601 43 601 21.5 601L0 601Z" fill="#a78f41"></path></svg>