<svg id="visual" viewBox="0 0 900 450" width="900" height="450" xmlns="http://www.w3.org/2000/svg" xmlns:xlink="http://www.w3.org/1999/xlink" version="1.1"><path d="M0 290L129 300L257 284L386 335L514 300L643 330L771 296L900 309L900 451L771 451L643 451L514 451L386 451L257 451L129 451L0 451Z" fill="#dfc15e"></path><path d="M0 312L129 311L257 318L386 312L514 342L643 311L771 315L900 349L900 451L771 451L643 451L514 451L386 451L257 451L129 451L0 451Z" fill="#ead086"></path><path d="M0 354L129 334L257 358L386 363L514 372L643 328L771 352L900 330L900 451L771 451L643 451L514 451L386 451L257 451L129 451L0 451Z" fill="#f3dfae"></path><path d="M0 389L129 385L257 377L386 385L514 376L643 361L771 391L900 361L900 451L771 451L643 451L514 451L386 451L257 451L129 451L0 451Z" fill="#faefd6"></path><path d="M0 426L129 420L257 408L386 396L514 395L643 413L771 428L900 398L900 451L771 451L643 451L514 451L386 451L257 451L129 451L0 451Z" fill="#ffffff"></path></svg>