<svg id="visual" viewBox="0 0 900 300" width="900" height="300" xmlns="http://www.w3.org/2000/svg" xmlns:xlink="http://www.w3.org/1999/xlink" version="1.1"><path d="M0 199L21.5 195.2C43 191.3 86 183.7 128.8 187C171.7 190.3 214.3 204.7 257.2 207.8C300 211 343 203 385.8 202.7C428.7 202.3 471.3 209.7 514.2 206.3C557 203 600 189 642.8 185.7C685.7 182.3 728.3 189.7 771.2 194.8C814 200 857 203 878.5 204.5L900 206L900 301L878.5 301C857 301 814 301 771.2 301C728.3 301 685.7 301 642.8 301C600 301 557 301 514.2 301C471.3 301 428.7 301 385.8 301C343 301 300 301 257.2 301C214.3 301 171.7 301 128.8 301C86 301 43 301 21.5 301L0 301Z" fill="#ebd490"></path><path d="M0 230L21.5 229.5C43 229 86 228 128.8 228.5C171.7 229 214.3 231 257.2 230.7C300 230.3 343 227.7 385.8 228.5C428.7 229.3 471.3 233.7 514.2 233.7C557 233.7 600 229.3 642.8 224.2C685.7 219 728.3 213 771.2 211.3C814 209.7 857 212.3 878.5 213.7L900 215L900 301L878.5 301C857 301 814 301 771.2 301C728.3 301 685.7 301 642.8 301C600 301 557 301 514.2 301C471.3 301 428.7 301 385.8 301C343 301 300 301 257.2 301C214.3 301 171.7 301 128.8 301C86 301 43 301 21.5 301L0 301Z" fill="#e5ca77"></path><path d="M0 227L21.5 230C43 233 86 239 128.8 241C171.7 243 214.3 241 257.2 237.7C300 234.3 343 229.7 385.8 227.3C428.7 225 471.3 225 514.2 224.7C557 224.3 600 223.7 642.8 224.2C685.7 224.7 728.3 226.3 771.2 228.5C814 230.7 857 233.3 878.5 234.7L900 236L900 301L878.5 301C857 301 814 301 771.2 301C728.3 301 685.7 301 642.8 301C600 301 557 301 514.2 301C471.3 301 428.7 301 385.8 301C343 301 300 301 257.2 301C214.3 301 171.7 301 128.8 301C86 301 43 301 21.5 301L0 301Z" fill="#dfc15e"></path><path d="M0 254L21.5 251.8C43 249.7 86 245.3 128.8 243.2C171.7 241 214.3 241 257.2 245C300 249 343 257 385.8 258.8C428.7 260.7 471.3 256.3 514.2 256.8C557 257.3 600 262.7 642.8 262.5C685.7 262.3 728.3 256.7 771.2 254.8C814 253 857 255 878.5 256L900 257L900 301L878.5 301C857 301 814 301 771.2 301C728.3 301 685.7 301 642.8 301C600 301 557 301 514.2 301C471.3 301 428.7 301 385.8 301C343 301 300 301 257.2 301C214.3 301 171.7 301 128.8 301C86 301 43 301 21.5 301L0 301Z" fill="#c3a84f"></path><path d="M0 267L21.5 269.3C43 271.7 86 276.3 128.8 277.7C171.7 279 214.3 277 257.2 277.7C300 278.3 343 281.7 385.8 282.5C428.7 283.3 471.3 281.7 514.2 278.8C557 276 600 272 642.8 270.8C685.7 269.7 728.3 271.3 771.2 271.5C814 271.7 857 270.3 878.5 269.7L900 269L900 301L878.5 301C857 301 814 301 771.2 301C728.3 301 685.7 301 642.8 301C600 301 557 301 514.2 301C471.3 301 428.7 301 385.8 301C343 301 300 301 257.2 301C214.3 301 171.7 301 128.8 301C86 301 43 301 21.5 301L0 301Z" fill="#a78f41"></path></svg>