<svg id="visual" viewBox="0 0 900 300" width="900" height="300" xmlns="http://www.w3.org/2000/svg" xmlns:xlink="http://www.w3.org/1999/xlink" version="1.1"><path d="M0 106L180 97L360 88L540 94L720 100L900 103L900 0L720 0L540 0L360 0L180 0L0 0Z" fill="#dfc15e"></path><path d="M0 154L180 157L360 136L540 163L720 148L900 157L900 101L720 98L540 92L360 86L180 95L0 104Z" fill="#9e8a4d"></path><path d="M0 247L180 259L360 253L540 247L720 253L900 262L900 155L720 146L540 161L360 134L180 155L0 152Z" fill="#61573b"></path><path d="M0 301L180 301L360 301L540 301L720 301L900 301L900 260L720 251L540 245L360 251L180 257L0 245Z" fill="#282828"></path></svg>