<svg id="visual" viewBox="0 0 900 300" width="900" height="300" xmlns="http://www.w3.org/2000/svg" xmlns:xlink="http://www.w3.org/1999/xlink" version="1.1"><path d="M0 229L21.5 228C43 227 86 225 128.8 218.7C171.7 212.3 214.3 201.7 257.2 199C300 196.3 343 201.7 385.8 213C428.7 224.3 471.3 241.7 514.2 240.2C557 238.7 600 218.3 642.8 207.3C685.7 196.3 728.3 194.7 771.2 198.8C814 203 857 213 878.5 218L900 223L900 301L878.5 301C857 301 814 301 771.2 301C728.3 301 685.7 301 642.8 301C600 301 557 301 514.2 301C471.3 301 428.7 301 385.8 301C343 301 300 301 257.2 301C214.3 301 171.7 301 128.8 301C86 301 43 301 21.5 301L0 301Z" fill="#FFFFFF" stroke-linecap="round" stroke-linejoin="miter"></path></svg>